<svg width="2560" height="798" xmlns="http://www.w3.org/2000/svg">
 <!-- Created with Method Draw - http://github.com/duopixel/Method-Draw/ -->
 <g>
  <title>background</title>
  <rect fill="#fff" id="canvas_background" height="800" width="2562" y="-1" x="-1"/>
  <g display="none" overflow="visible" y="0" x="0" height="100%" width="100%" id="canvasGrid">
   <rect fill="url(#gridpattern)" stroke-width="0" y="0" x="0" height="100%" width="100%"/>
  </g>
 </g>
 <g>
  <title>Layer 1</title>
  <path id="svg_13" d="m5.007706,752.258753c0,0 173.912001,-80.434301 173.912001,-80.434301c0,0 245.650702,-71.7387 245.650702,-71.7387c0,0 208.694402,-34.782401 208.694402,-34.782401c0,0 328.258903,-93.4777 328.258903,-93.4777c0,0 195.651001,-6.5217 199.998801,-6.5217c4.3478,0 69.564801,10.8695 69.564801,10.8695c0,0 28.2607,-23.912901 28.2607,-23.912901c0,0 21.739,32.608501 21.739,32.608501c0,0 32.608501,-19.5651 32.608501,-19.5651c0,0 41.3041,10.8695 41.3041,10.8695c0,0 47.8258,-6.5217 47.8258,-6.5217c0,0 30.434601,-39.130201 30.434601,-39.130201c0,0 95.6516,56.521401 95.6516,56.521401c0,0 28.260701,-8.6956 28.260701,-10.8695c0,-2.1739 49.9997,6.5217 49.9997,6.5217c0,0 71.738701,10.8695 71.738701,10.8695c0,0 86.956,17.3912 86.956,17.3912c0,0 121.738402,-21.739 121.738402,-21.739c0,0 106.5211,4.3478 106.5211,4.3478c0,0 30.434601,-26.0868 30.434601,-26.0868c0,0 82.6082,36.9563 82.6082,39.1302c0,2.1739 41.304101,28.2607 47.825801,28.2607c6.5217,0 65.217,-54.3475 69.5648,-58.6953c4.3478,-4.3478 128.260101,-73.912601 132.607901,-73.912601c4.347801,0 89.129901,21.739 89.129901,21.739c0,0 36.956301,71.738701 36.956301,71.738701c0,0 54.3475,43.478 54.3475,43.478c0,0 76.086501,39.130201 78.260401,39.130201c2.1739,0 47.8258,180.433701 47.8258,180.433701c0,0 0,121.738401 0,121.738401c0,0 -2845.635124,76.086501 -2845.635124,76.086501c0,0 186.955402,-204.346602 186.955402,-204.346602z" stroke-width="0" stroke="#fff" fill="#f97c7c"/>
 </g>
</svg>