<svg width="300" height="300" xmlns="http://www.w3.org/2000/svg">
 <!-- Created with Method Draw - http://github.com/duopixel/Method-Draw/ -->
 <g>
  <title>background</title>
  <g display="none" overflow="visible" y="0" x="0" height="100%" width="100%" id="canvasGrid">
   <rect fill="url(#gridpattern)" stroke-width="0" y="0" x="0" height="100%" width="100%"/>
  </g>
 </g>
 <g>
  <title>Layer 1</title>
  <path stroke="#ffffff" id="svg_31" d="m2302.46722,1058.138769l139.500004,-303.938569l139.500005,303.938569l-279.000009,0z" stroke-opacity="null" stroke-width="0" fill="#bed8d5"/>
  <path id="svg_32" d="m1584.467218,1067.13878l179.000008,-390.000033l179.000009,390.000033l-358.000017,0z" stroke-opacity="null" stroke-width="0" stroke="#ffffff" fill="#bed8d5"/>
  <path stroke="#ffffff" id="svg_33" d="m1858.209708,1079.138791l267.500004,-576.257071l267.500005,576.257071l-535.00001,0z" stroke-opacity="null" stroke-width="0" fill="#ffffff"/>
  <path id="svg_50" d="m2452.731043,223.88158l-73.840661,26.268755l0,-52.509534l73.840661,26.240779zm-53.614558,-129.399493l-33.640233,70.805344l-37.123151,-37.151125l70.763384,-33.654219zm-129.385512,-53.586581l26.254768,73.854645l-52.523524,0l26.268756,-73.854645zm-129.399499,53.586581l70.791359,33.654219l-37.137139,37.151125l-33.654221,-70.805344zm-53.600571,129.399493l73.854649,-26.240779l0,52.509534l-73.854649,-26.268755zm53.600571,129.399493l33.654221,-70.777368l37.137139,37.137137l-70.791359,33.640231l0,0zm129.399499,53.628544l-26.268756,-73.868633l52.523524,0l-26.254768,73.868633zm129.385512,-53.628544l-70.777372,-33.626244l37.123151,-37.137137l33.654221,70.763381zm-220.878553,-129.399493l0,0c0,-50.523291 40.969747,-91.493037 91.507029,-91.493037c50.523294,0 91.507029,40.969745 91.507029,91.493037c0,50.537279 -40.983735,91.507024 -91.507029,91.507024c-50.551269,0 -91.507029,-40.969745 -91.507029,-91.507024l0,0z" stroke-opacity="null" stroke-width="0" stroke="#ffffff" fill="#d5f2ec"/>
  <path stroke="#ffffff" id="svg_21" d="m630.466836,1018.138743l227.500033,-495.670485l227.500035,495.670485l-455.000069,0z" stroke-opacity="null" stroke-width="0" fill="#bed8d5"/>
  <path id="svg_52" d="m125.484717,63.706763l35.761568,49.542956l-14.745949,5.846848l45.030639,42.447458l-14.739342,7.088891l55.667278,71.080499l-94.421639,-54.471486l18.009613,-7.564567l-58.666678,-34.889499l21.022226,-10.781985l-61.943555,-36.60061l69.025839,-31.698507z" fill-opacity="null" stroke-opacity="null" stroke-width="0" stroke="#ffffff" fill="#a2dbd1"/>
 </g>
</svg>