<?xml version="1.0" encoding="utf-8"?>
<!-- Generator: Adobe Illustrator 16.0.0, SVG Export Plug-In . SVG Version: 6.00 Build 0)  -->
<!DOCTYPE svg PUBLIC "-//W3C//DTD SVG 1.1//EN" "http://www.w3.org/Graphics/SVG/1.1/DTD/svg11.dtd">
<svg version="1.1" xmlns="http://www.w3.org/2000/svg" xmlns:xlink="http://www.w3.org/1999/xlink" x="0px" y="0px" width="2560px"
	 height="576px" viewBox="0 0 2560 576" enable-background="new 0 0 2560 576" xml:space="preserve">
<g id="Layer_1" display="none">
	<path display="inline" fill="#1C344F" d="M73,363c0,0,6-10,60-38s106-40,150-36s68-10,118,10s74,20.916,148,26.458S657,313,705,315
		s12,14,126-8s66-68,196-40s130,37.221,206,43.61s70,23.61,186,0S1565,255,1617,267s88,17.221,158,43.61S1901,367,1973,383
		s102,30,188,10s80-66,168-22s170,58,130,108s-50,50-202,63s-212-61-498-67s-256,9-426,38s-8,34-294,18s-244-96-420-84
		s-172,38-294,52s-140,78-238,2S73,363,73,363z"/>
	<path display="inline" fill="#0F2030" d="M101,497c20.341,26.834-42,44,66,20s73.232-27.111,150-28.277S383,511,459,503s42-6,124-6
		s68-34,172,0s116,44.889,200,31.444S1089,501,1141,501s129.162,12,180.581,14S1391,517,1501,511s34-2.959,146-19.479
		S1709,483,1849,507s126,52.082,226,27.041s110,13.797,168-37.622S2381,387,2297,429s-46,54.404-170,50.202S2099,513,1931,461
		s-80-38-284-12s-210,38-248-2s-2-36.25-50-46.125S1149.911,359,1254.456,423S1413,502.953,1280,463.977S1119,377,1043,409
		s-18,79.953-106,54.977S825,425,771,411s-76-22-124,0s-62,62-140,26s-10,2.229-136-52.886S295.476,279.383,195,313
		s-94.371-34-100.186,54S75.606,448.358,89,455S80.659,470.166,101,497z"/>
	<path display="inline" fill="#2B4E71" d="M235.353,292.928c-119.307,20.554-100.617-38.171-149.394,30.341
		s-48.861,27.412-44.233,93.959c4.627,66.547-50.055,46.979,0,90.045c50.055,43.064,3.348,80.079,124.775,43.954
		c121.427-36.124,234.667-38.082,113.339-65.486c-121.329-27.405-181.993-9.788-145.594-39.15
		c36.398-29.362,103.129,24.435,76.841-20.081s-111.218-32.771-46.509-50.388c64.708-17.618,90.997,33.277,97.063-13.703
		c6.066-46.979-74.819-64.597-18.199-56.767C300.062,313.481,354.66,272.374,235.353,292.928z"/>
	<path display="inline" fill="#2B4E71" d="M673,389c-50.648,36.043-89.297,24.086-50.648,36.043S635,417.953,687,426.477
		S685,457,771,439s100-9.662,120-33.831S941,367,867,373s-120,20-122,10S723.648,352.957,673,389z"/>
	<path display="inline" fill="#2B4E71" d="M1577,426.477c-9.624,33.208-34,48.365,0,48.444s-14.057,27.647,34,0.079
		s36.6-24.257,96.232-34.507S1765,440.902,1825,422.951s144-24.201,52-22.076s-32-11.631-112,6.247s-90,38.709-114,19.354
		S1586.624,393.269,1577,426.477z"/>
	<path display="inline" fill="#355D81" d="M1579,283.064c0,0-250,60.936-318,54.936s-180-25.168-78,0.416s28,28.299,128,10.941
		s33.029-19.895,142.515-27.626S1493,294,1579,310s104.099,38.057,102,11.731s-20-38.667-96-38.667"/>
</g>
<g id="Layer_2">
	<path fill="#355D81" d="M137,413c38-116-60-60,52-144s54-54,154-126s18-82,144-80S589-5,671,75s68-16,102,138s-42,104,100,190
		s58,82,208,94s88-40,238,0s94,92,228,34s36-12,190-104s152-54,238-184s-26-104,152-160s136-176,268-60s180,36,165,182
		s123,10,133,124s64,258,64,284s420,32-180,70s-1404-10-1570,12s-784-10-878-12s-248-48-248-48s66.911-32.535,133.055-81.28
		C67.302,514.479,120.052,464.734,137,413z"/>
	<path fill="#63859E" d="M405,141c-44,56-70,30-128,84s-62,26-78,86s-88,156-10,82s-6-56,90-88s102,20.866,156-49.567
		S439,177,503,175s108,12,138-44s92-4,26-40s-24-44-94-22S449,85,405,141z"/>
	<path fill="#63859E" d="M2359,37c27.969,15.383,46.359,22.734,62,48c52,84,88,144,0,102s6-88-90-84s-78-34-136,26s-12,72-84,98
		s-50-34-102,61s-6,128.732-114,131.866s-93.99,24.099-164,39.134s-180.588,82.075-70.01,15.035s130.012-75.232,210.01-135.586
		c79.998-60.354,104,8.551,134-85.449s-26-74,48-122s14,2,102-44s56-57,120-72s50.482-53.21,80-15s38,41,38,41"/>
</g>
</svg>
