<?xml version="1.0" encoding="utf-8"?>
<!-- Generator: Adobe Illustrator 16.0.0, SVG Export Plug-In . SVG Version: 6.00 Build 0)  -->
<!DOCTYPE svg PUBLIC "-//W3C//DTD SVG 1.1//EN" "http://www.w3.org/Graphics/SVG/1.1/DTD/svg11.dtd">
<svg version="1.1" id="Layer_1" xmlns="http://www.w3.org/2000/svg" xmlns:xlink="http://www.w3.org/1999/xlink" x="0px" y="0px"
	 width="2560px" height="576px" viewBox="0 0 2560 576" enable-background="new 0 0 2560 576" xml:space="preserve">
<path fill="#1C344F" d="M73,363c0,0,6-10,60-38s106-40,150-36s68-10,118,10s74,20.916,148,26.458S657,313,705,315s12,14,126-8
	s66-68,196-40s130,37.221,206,43.61s70,23.61,186,0S1565,255,1617,267s88,17.221,158,43.61S1901,367,1973,383s102,30,188,10
	s80-66,168-22s170,58,130,108s-50,50-202,63s-212-61-498-67s-256,9-426,38s-8,34-294,18s-244-96-420-84s-172,38-294,52
	s-140,78-238,2S73,363,73,363z"/>
<path fill="#0F2030" d="M101,497c20.341,26.834-42,44,66,20s73.232-27.111,150-28.277S383,511,459,503s42-6,124-6s68-34,172,0
	s116,44.889,200,31.444S1089,501,1141,501s129.162,12,180.581,14S1391,517,1501,511s34-2.959,146-19.479S1709,483,1849,507
	s126,52.082,226,27.041s110,13.797,168-37.622S2381,387,2297,429s-46,54.404-170,50.202S2099,513,1931,461s-80-38-284-12
	s-210,38-248-2s-2-36.25-50-46.125S1149.911,359,1254.456,423S1413,502.953,1280,463.977S1119,377,1043,409s-18,79.953-106,54.977
	S825,425,771,411s-76-22-124,0s-62,62-140,26s-10,2.229-136-52.886S295.476,279.383,195,313s-94.371-34-100.186,54
	S75.606,448.358,89,455S80.659,470.166,101,497z"/>
<path fill="#2B4E71" d="M235.353,292.928c-119.307,20.554-100.617-38.171-149.394,30.341s-48.861,27.412-44.233,93.959
	c4.627,66.547-50.055,46.979,0,90.045c50.055,43.064,3.348,80.079,124.775,43.954c121.427-36.124,234.667-38.082,113.339-65.486
	c-121.329-27.405-181.993-9.788-145.594-39.15c36.398-29.362,103.129,24.435,76.841-20.081s-111.218-32.771-46.509-50.388
	c64.708-17.618,90.997,33.277,97.063-13.703c6.066-46.979-74.819-64.597-18.199-56.767
	C300.062,313.481,354.66,272.374,235.353,292.928z"/>
<path fill="#2B4E71" d="M673,389c-50.648,36.043-89.297,24.086-50.648,36.043S635,417.953,687,426.477S685,457,771,439
	s100-9.662,120-33.831S941,367,867,373s-120,20-122,10S723.648,352.957,673,389z"/>
<path fill="#2B4E71" d="M1577,426.477c-9.624,33.208-34,48.365,0,48.444s-14.057,27.647,34,0.079s36.6-24.257,96.232-34.507
	S1765,440.902,1825,422.951s144-24.201,52-22.076s-32-11.631-112,6.247s-90,38.709-114,19.354S1586.624,393.269,1577,426.477z"/>
<path fill="#355D81" d="M1579,283.064c0,0-250,60.936-318,54.936s-180-25.168-78,0.416s28,28.299,128,10.941
	s33.029-19.895,142.515-27.626S1493,294,1579,310s104.099,38.057,102,11.731s-20-38.667-96-38.667"/>
</svg>
