<?xml version="1.0" encoding="utf-8"?>
<!-- Generator: Adobe Illustrator 16.0.0, SVG Export Plug-In . SVG Version: 6.00 Build 0)  -->
<!DOCTYPE svg PUBLIC "-//W3C//DTD SVG 1.1//EN" "http://www.w3.org/Graphics/SVG/1.1/DTD/svg11.dtd">
<svg version="1.1" id="Layer_1" xmlns="http://www.w3.org/2000/svg" xmlns:xlink="http://www.w3.org/1999/xlink" x="0px" y="0px"
	 width="2560px" height="576px" viewBox="0 0 2560 576" enable-background="new 0 0 2560 576" xml:space="preserve">
<path fill="#FAEFDB" d="M485,288c64-15,86-69,200-65s138-52,272-12s220,82,270,48s42-70,154-54s142,8.521,224,37.261
	S1757,291,1727,339s50,50-104,78s-128-8-274,28s-142,90-218,34s-128-112-220-74s-132,34-182,20s-108-22-152-16s-74,48-116-2
	s-88-44-52-88S485,288,485,288z"/>
<path fill="#ADB0B8" d="M326.708,353.13C353.354,338.657,337.1,321.577,397,325c70,4,41.74-19.438,125.913,4.267
	s88.113,9.954,178.1,17.844S789,359.621,837,339.311s32-47.305,100-20.808s94,28.731,136,41.614S1167,391,1221,399s50-6,130,0
	s76,21.826,142,28.913s8-13.087,112,0S1737,441,1727,473s144,84-78,66s-118-23.639-346-13.819s-202,20.114-306-36.033
	S909,375,785,403s-84,47.061-188,55.53S519,443,423,431s-193.941,14-180.971-38S322.215,355.57,326.708,353.13z"/>
<path fill="#C6BAB1" d="M579,279c34-8,34-20,64-10s52-9.801,96,3.1s54,7.3,104-6.9s72-29.662,58,7.069s116,40.234,36,46.234
	s-164,39.614-218,19.614S627,295,609,299s-52,8-58,4S579,279,579,279z"/>
<path fill="#C6BAB1" d="M1179,423c30,2,20,12,48,0s14-12,53-16s43,3.807,53,10.903s40,2.71,0,10.903S1297,425,1257,439s-76,42-92,20
	s-32-12-20-32S1179,423,1179,423z"/>
<path fill="#C6BAB1" d="M1549,321c-30,2-108,41.701-74,28.851s21.582-18.14,47.791-13.495S1565,368.701,1579,349.851
	s0-29.546,0-29.546S1579,319,1549,321z"/>
<path fill="#C6BAB1" d="M2175,349.851"/>
<path fill="#FAEFDB" d="M1021.938,422.73c-30.994,7.264-41.648,33.415-96.856,31.479c-55.209-1.938-66.832,25.183-131.726,5.812
	c-64.894-19.372-106.542-39.712-130.757-23.246c-24.214,16.466-20.34,33.899-74.579,26.151s-68.769-4.127-108.479-18.045
	s-73.611-23.604-59.082-46.849c14.528-23.246-24.215-24.215,50.365-37.774s60.312-21.564,132.693-13.56
	C769,365,678.193,343.88,715,371c36.805,27.119,105.446-14.48,150-32.883c44.554-18.403,57.785-2.769,82,4.012
	c24.214,6.779,9.076,24.909,30.385,22.003c21.309-2.905,35.836-23.245,56.176,0.969s42.617,21.309,25.184,42.617
	C1041.31,429.026,1021.938,422.73,1021.938,422.73z"/>
<path fill="#C6BAB1" d="M992,226c34-8,34-20,64-10s52-9.801,96,3.1s54,7.3,104-6.9s72-29.662,58,7.069S1328,268,1248,274
	s-82,8-136-12s-72-20-90-16s-52,8-58,4S992,226,992,226z"/>
<path fill="#C6BAB1" d="M1792.434,457.638c-34,8-34,20-64,10s-52,9.801-96-3.1s-54-7.3-104,6.9
	c-50,14.199-262.434,52.422-248.434,15.69c14-36.73,106.582-27.06,186.582-33.06S1641,372.777,1695,392.777
	s49.434,48.86,67.434,44.86s52-8,58-4S1792.434,457.638,1792.434,457.638z"/>
</svg>
