<svg width="2560" height="798" xmlns="http://www.w3.org/2000/svg">
 <g>
  <rect stroke="#fff" id="svg_8" height="340" width="2692.000076" y="769.998932" x="-87.500101" stroke-width="0" fill="#C97872"/>
  <rect id="svg_9" height="0" width="2" y="943.998932" x="2750.499866" stroke-width="0" stroke="#fff" fill="#C97872"/>
  <path id="svg_11" d="m-69.500134,787.998932c0,-2 46,-88 46,-90c0,-2 96,-110 94.999999,-110.000004c1.000001,0.000004 77.000001,-43.999996 76,-44c1.000001,0.000004 75.000001,-51.999996 74,-52c1.000001,0.000004 29.000001,-61.999996 28,-62c1.000001,0.000004 57.000001,6.000004 56,6c1.000001,0.000004 53.000001,28.000004 52,28c1.000002,0.000004 1.000002,54.000004 0,54c1.000002,0.000004 51.000002,26.000004 50,26c1.000002,0.000004 3.000002,46.000004 3.000002,52.000004c0,6 48,10 46.999998,9.999996c1.000002,0.000004 57.000002,48.000004 56,48c1.000002,0.000005 57.000002,4.000005 56,4c1.000003,0.000005 135.000003,60.000005 139.000003,62.000005c4,2 102,18 100.999997,17.999995c1.000003,0.000005 123.000003,2.000005 127.000003,4.000005c4,2 136,14 134.999995,13.999995c1.000005,0.000005 147.000005,28.000005 145.999999,28c1.000005,0.000005 211.000005,-5.999995 209.999999,-6c1.000006,0.000005 103.000006,-57.999995 102,-58c1.000006,0.000005 -116.999994,152.000005 -118,151.999999" fill-opacity="null" stroke-opacity="null" stroke-width="0" stroke="#fff" fill="#C97872"/>
  <path id="svg_12" d="m1438.499866,779.998932c6,-2 114,-80 112.999994,-80.000005c1.000006,0.000005 81.000006,-107.999995 79.999999,-107.999999c1.000007,0.000004 137.000007,-29.999996 136,-30c1.000007,0.000004 175.000007,-75.999996 173.999999,-76c1.000008,0.000004 105.000008,8.000004 104,8c1.000008,0.000004 79.000008,22.000004 77.999999,22c1.000009,0.000004 43.000009,-31.999996 42,-32c1.000009,0.000004 85.000009,42.000004 87.000009,44.000004c2,2 138,52 136.99999,51.999996c1.00001,0.000004 87.00001,-1.999996 89.00001,-1.999996c2,0 66,56 68,56c2,0 64,22 62.999989,21.999995c1.000011,0.000005 3.000011,136.000005 2,136c1.000011,0.000005 -258.999989,108.000005 -259.999999,107.999999" fill-opacity="null" stroke-opacity="null" stroke-width="0" stroke="#fff" fill="#C97872"/>
 </g>
</svg>